<svg xmlns="http://www.w3.org/2000/svg" viewBox="0 0 760 440" font-family="Be Vietnam Pro,Segoe UI,Arial,sans-serif">
<defs><marker id="ao" viewBox="0 0 10 10" refX="9" refY="5" markerWidth="7" markerHeight="7" orient="auto"><path d="M0 0L10 5L0 10z" fill="#ee5a24"/></marker></defs>
<rect width="760" height="440" fill="#fff"/>
<rect x="60" y="40" width="500" height="46" fill="#ee5a24" opacity=".85"/>
<text x="310" y="68" font-size="14" fill="#fff" text-anchor="middle" font-weight="700">Sàn / dầm chuyển · Transfer slab / beam</text>
<rect x="76" y="86" width="8" height="64" fill="#1d2a5b"/>
<rect x="142" y="86" width="8" height="64" fill="#1d2a5b"/>
<rect x="207" y="86" width="8" height="64" fill="#1d2a5b"/>
<rect x="273" y="86" width="8" height="64" fill="#1d2a5b"/>
<rect x="339" y="86" width="8" height="64" fill="#1d2a5b"/>
<rect x="405" y="86" width="8" height="64" fill="#1d2a5b"/>
<rect x="470" y="86" width="8" height="64" fill="#1d2a5b"/>
<rect x="536" y="86" width="8" height="64" fill="#1d2a5b"/>
<rect x="60" y="150" width="500" height="14" fill="#9aa7c4"/>
<text x="574" y="161" font-size="13" fill="#1d2a5b" font-weight="600">Tầng 2 · Floor 2</text>
<rect x="76" y="164" width="8" height="76" fill="#1d2a5b"/>
<rect x="168" y="164" width="8" height="76" fill="#1d2a5b"/>
<rect x="260" y="164" width="8" height="76" fill="#1d2a5b"/>
<rect x="352" y="164" width="8" height="76" fill="#1d2a5b"/>
<rect x="444" y="164" width="8" height="76" fill="#1d2a5b"/>
<rect x="536" y="164" width="8" height="76" fill="#1d2a5b"/>
<rect x="60" y="240" width="500" height="14" fill="#9aa7c4"/>
<text x="574" y="251" font-size="13" fill="#1d2a5b" font-weight="600">Tầng 1 · Floor 1</text>
<rect x="76" y="254" width="8" height="76" fill="#1d2a5b"/>
<rect x="191" y="254" width="8" height="76" fill="#1d2a5b"/>
<rect x="306" y="254" width="8" height="76" fill="#1d2a5b"/>
<rect x="421" y="254" width="8" height="76" fill="#1d2a5b"/>
<rect x="536" y="254" width="8" height="76" fill="#1d2a5b"/>
<rect x="60" y="330" width="500" height="14" fill="#9aa7c4"/>
<text x="574" y="341" font-size="13" fill="#1d2a5b" font-weight="600">Tầng B1 · Floor B1</text>
<rect x="40" y="410" width="540" height="16" fill="#6b7596"/>
<rect x="76" y="344" width="8" height="66" fill="#1d2a5b"/>
<rect x="229" y="344" width="8" height="66" fill="#1d2a5b"/>
<rect x="383" y="344" width="8" height="66" fill="#1d2a5b"/>
<rect x="536" y="344" width="8" height="66" fill="#1d2a5b"/>
<text x="574" y="422" font-size="13" fill="#1d2a5b" font-weight="600">Móng · Foundation</text>
<path d="M30 96V146" stroke="#ee5a24" stroke-width="8.0" marker-end="url(#ao)"/>
<path d="M30 178V236" stroke="#ee5a24" stroke-width="6.4" marker-end="url(#ao)"/>
<path d="M30 268V326" stroke="#ee5a24" stroke-width="4.8" marker-end="url(#ao)"/>
<path d="M30 358V404" stroke="#ee5a24" stroke-width="3.2" marker-end="url(#ao)"/>
<text x="600" y="190" font-size="12" fill="#6b7596">P = (q − q_tk)·l₁·b₁</text>
<text x="600" y="206" font-size="12" fill="#6b7596">q_dưới = q − q_tk</text>
</svg>