<svg xmlns="http://www.w3.org/2000/svg" viewBox="0 0 1200 600" width="1200" height="600">
<defs><linearGradient id="bg" x1="0" y1="0" x2="1" y2="1"><stop offset="0" stop-color="#1d2a5b"/><stop offset=".65" stop-color="#2a3c7e"/><stop offset="1" stop-color="#3b56a8"/></linearGradient>
<radialGradient id="glow" cx=".78" cy=".2" r=".6"><stop offset="0" stop-color="#ee5a24" stop-opacity=".35"/><stop offset="1" stop-color="#ee5a24" stop-opacity="0"/></radialGradient>
<pattern id="grid" width="40" height="40" patternUnits="userSpaceOnUse"><path d="M40 0H0v40" fill="none" stroke="#fff" stroke-opacity=".06" stroke-width="1"/></pattern></defs>
<rect width="1200" height="600" fill="url(#bg)"/><rect width="1200" height="600" fill="url(#grid)"/><rect width="1200" height="600" fill="url(#glow)"/>
<rect x="0" y="588" width="1200" height="12" fill="#ee5a24"/>
<text x="90" y="130" font-family="Be Vietnam Pro,Segoe UI,Arial,sans-serif" font-size="26" font-weight="700" letter-spacing="4" fill="#ffb08c">CULTURE STORIES</text>
<text x="80" y="390" font-family="Source Serif 4,Georgia,serif" font-size="250" font-weight="700" fill="#fff" fill-opacity=".95">15</text>
<rect x="90" y="440" width="120" height="8" rx="4" fill="#ee5a24"/>
<circle cx="900" cy="300" r="230" fill="#fff" fill-opacity=".05"/>
<g transform="translate(700,100)"><rect x="40" y="40" width="320" height="320" rx="16" stroke="#fff" stroke-width="10" fill="none" stroke-linecap="round" stroke-linejoin="round"/><path d="M40 120h200M120 200h240M40 280h200M120 120v80M240 280v80" stroke="#fff" stroke-width="10" fill="none" stroke-linecap="round" stroke-linejoin="round"/><path d="M80 80h240v80H80v80h240v80" stroke="#ee5a24" stroke-width="10" fill="none" stroke-linecap="round" stroke-linejoin="round" stroke-dasharray="2 20"/><circle cx="330" cy="330" r="20" fill="#ee5a24"/></g>
</svg>